<?xml version="1.0" encoding="UTF-8"?><svg id="Capa_1" xmlns="http://www.w3.org/2000/svg" viewBox="0 0 510.3 165.72"><defs><style>.cls-1{fill:#e6e6e6;}.cls-2{fill:#faff00;stroke:#faff00;stroke-miterlimit:10;stroke-width:3px;}</style></defs><g><path class="cls-2" d="M43.65,67.05l-6.1,36.34H8.8L25.33,4.39H58.04c7.69,0,13.28,.33,16.79,.98,3.51,.65,7.13,2.23,10.88,4.72,3.75,2.49,6.72,5.83,8.92,10.01,2.2,4.18,3.3,8.67,3.3,13.45,0,9.28-3.02,17.19-9.06,23.72-6.04,6.53-14.69,9.79-25.95,9.79h-19.28Zm3.56-21.18h6.83c10.41,0,15.61-3.52,15.61-10.55,0-6.31-4.35-9.47-13.06-9.47h-6.02l-3.36,20.02Z"/><path class="cls-2" d="M144.57,105.92c-11.7,0-21.86-3.83-30.46-11.5-8.61-7.66-12.91-18.65-12.91-32.96,0-16.58,4.81-30.67,14.43-42.25C125.25,7.64,137.82,1.85,153.34,1.85c12.43,0,22.63,4.05,30.61,12.15,7.98,8.1,11.97,18.7,11.97,31.8,0,16.73-4.74,30.93-14.22,42.61-9.48,11.68-21.86,17.51-37.13,17.51Zm.22-23.06c5.12,0,9.02-2.16,11.68-6.49,2.66-4.33,4.76-10.67,6.31-19.04,1.55-8.36,2.32-14.02,2.32-16.97,0-5.08-1.17-8.92-3.52-11.53-2.35-2.61-5.45-3.92-9.32-3.92-7.4,0-12.6,5.15-15.59,15.45-3,10.3-4.5,19.41-4.5,27.34,0,10.11,4.21,15.16,12.62,15.16Z"/><path class="cls-2" d="M335.86,4.39l-40.86,99h-25.92l-4.52-59.33-6.96,18.28-16.6,41.05h-24.32L205.65,4.39h27.58l3.55,44.82,.65,5.51,.15,2.97c.19,2.71,.36,4.67,.51,5.87,1.26-4.11,2.61-7.93,4.06-11.46l19.59-47.72h23.83l4.59,59.18c1.79-5.56,3.8-11.02,6.02-16.39l16.83-42.79h22.85Z"/><path class="cls-2" d="M406.17,80.61l-3.84,22.77h-72.96L345.9,4.39h71.15l-3.63,21.69h-42.47l-2.57,15.52h35.68l-3.63,21.47h-35.61l-2.91,17.55h44.25Z"/><path class="cls-2" d="M488,61.9l10.72,41.49h-29.29l-8.71-37.64h-11.71l-6.32,37.64h-28.24L430.98,4.39h43.23c11.75,0,20.45,2.57,26.11,7.72,5.66,5.15,8.49,12.15,8.49,21,0,14.17-6.93,23.76-20.8,28.79Zm-35.54-16.75h11.13c10.7,0,16.05-3.63,16.05-10.88,0-6.09-4.49-9.14-13.47-9.14h-10.35l-3.36,20.02Z"/></g><g><path class="cls-1" d="M134.87,161.81l16.84-24.43v-.16h-15.35v-4.99h23.14v3.54l-16.6,24.22v.17h16.85v4.99h-24.87v-3.33Z"/><path class="cls-1" d="M236.77,148.35c0,11.02-6.68,17.32-15.75,17.32s-15.19-7.1-15.19-16.74,6.39-17.25,15.67-17.25,15.27,7.26,15.27,16.67Zm-24.59,.46c0,6.72,3.39,12.05,9.14,12.05s9.09-5.4,9.09-12.29c0-6.21-3.08-12.08-9.08-12.08s-9.16,5.56-9.16,12.32Z"/><path class="cls-1" d="M285.88,165.14v-32.92h6.87l8.5,14.13c2.17,3.64,4.08,7.46,5.6,11.03l.12-.03c-.43-4.37-.54-8.61-.54-13.64v-11.49h5.56v32.92h-6.23l-8.59-14.48c-2.1-3.61-4.28-7.62-5.9-11.35l-.15,.03c.24,4.28,.32,8.62,.32,14.03v11.78h-5.56Z"/><path class="cls-1" d="M381.26,150.54h-12.41v9.66h13.87v4.95h-19.89v-32.92h19.16v4.95h-13.14v8.46h12.41v4.9Z"/></g></svg>