<?xml version="1.0" encoding="utf-8"?>
<!-- Generator: Adobe Illustrator 27.0.0, SVG Export Plug-In . SVG Version: 6.00 Build 0)  -->
<svg version="1.1" id="Capa_1" xmlns="http://www.w3.org/2000/svg" xmlns:xlink="http://www.w3.org/1999/xlink" x="0px" y="0px"
	 viewBox="0 0 510 167" style="enable-background:new 0 0 510 167;" xml:space="preserve">
<style type="text/css">
	.st0{fill:#FAFF00;stroke:#FAFF00;stroke-width:3;stroke-miterlimit:10;}
	.st1{fill:#FAFF00;}
</style>
<g>
	<path class="st0" d="M39.8,69.1l-6.1,36.3H5l16.5-99h32.7c7.7,0,13.3,0.3,16.8,1s7.1,2.2,10.9,4.7s6.7,5.8,8.9,10s3.3,8.7,3.3,13.4
		c0,9.3-3,17.2-9.1,23.7s-14.7,9.8-26,9.8L39.8,69.1L39.8,69.1z M43.4,47.9h6.8c10.4,0,15.6-3.5,15.6-10.6c0-6.3-4.3-9.5-13.1-9.5
		h-6C46.8,27.9,43.4,47.9,43.4,47.9z"/>
	<path class="st0" d="M140.8,108c-11.7,0-21.9-3.8-30.5-11.5c-8.6-7.7-12.9-18.6-12.9-33c0-16.6,4.8-30.7,14.4-42.2
		S134,3.9,149.5,3.9c12.4,0,22.6,4.1,30.6,12.1c8,8.1,12,18.7,12,31.8c0,16.7-4.7,30.9-14.2,42.6S156,108,140.8,108L140.8,108z
		 M141,84.9c5.1,0,9-2.2,11.7-6.5c2.7-4.3,4.8-10.7,6.3-19c1.6-8.4,2.3-14,2.3-17c0-5.1-1.2-8.9-3.5-11.5s-5.4-3.9-9.3-3.9
		c-7.4,0-12.6,5.1-15.6,15.4c-3,10.3-4.5,19.4-4.5,27.3C128.4,79.9,132.6,84.9,141,84.9z"/>
	<path class="st0" d="M332,6.4l-40.9,99h-25.9l-4.5-59.3l-7,18.3l-16.6,41h-24.3l-11-99h27.6l3.6,44.8l0.6,5.5l0.1,3
		c0.2,2.7,0.4,4.7,0.5,5.9c1.3-4.1,2.6-7.9,4.1-11.5l19.6-47.7h23.8l4.6,59.2c1.8-5.6,3.8-11,6-16.4l16.8-42.8L332,6.4L332,6.4z"/>
	<path class="st0" d="M402.4,82.7l-3.8,22.8h-73l16.5-99h71.1l-3.6,21.7h-42.5l-2.6,15.5h35.7l-3.6,21.5H361l-2.9,17.5L402.4,82.7
		L402.4,82.7z"/>
	<path class="st0" d="M484.2,64l10.7,41.5h-29.3l-8.7-37.6h-11.7l-6.3,37.6h-28.2l16.5-99h43.2c11.8,0,20.5,2.6,26.1,7.7
		c5.7,5.1,8.5,12.1,8.5,21C505,49.3,498.1,58.9,484.2,64L484.2,64z M448.6,47.2h11.1c10.7,0,16-3.6,16-10.9c0-6.1-4.5-9.1-13.5-9.1
		H452L448.6,47.2z"/>
</g>
<g>
	<path class="st1" d="M131.1,161.8l16.8-24.4v-0.2h-15.4v-5h23.1v3.5L139.1,160v0.2H156v5h-24.9L131.1,161.8L131.1,161.8z"/>
	<path class="st1" d="M233,148.4c0,11-6.7,17.3-15.8,17.3S202,158.6,202,149s6.4-17.2,15.7-17.2S233,139,233,148.4L233,148.4z
		 M208.4,148.8c0,6.7,3.4,12,9.1,12s9.1-5.4,9.1-12.3c0-6.2-3.1-12.1-9.1-12.1S208.4,142.1,208.4,148.8L208.4,148.8z"/>
	<path class="st1" d="M282.1,165.2v-32.9h6.9l8.5,14.1c2.2,3.6,4.1,7.5,5.6,11l0.1,0c-0.4-4.4-0.5-8.6-0.5-13.6v-11.5h5.6v32.9H302
		l-8.6-14.5c-2.1-3.6-4.3-7.6-5.9-11.4l-0.1,0c0.2,4.3,0.3,8.6,0.3,14v11.8L282.1,165.2L282.1,165.2z"/>
	<path class="st1" d="M377.5,150.6h-12.4v9.7h13.9v5H359v-32.9h19.2v5h-13.1v8.5h12.4V150.6L377.5,150.6z"/>
</g>
</svg>
